<svg width="32" height="33" viewBox="0 0 32 33" fill="none" xmlns="http://www.w3.org/2000/svg">
<path d="M24 21.401H21.3333M21.3333 21.401H18.6667M21.3333 21.401V18.7344M21.3333 21.401V24.0677" stroke="#030033" stroke-width="2" stroke-linecap="round"/>
<path d="M9.33334 5.40137V3.40137" stroke="#030033" stroke-width="2" stroke-linecap="round"/>
<path d="M22.6667 5.40137V3.40137" stroke="#030033" stroke-width="2" stroke-linecap="round"/>
<path d="M28.6667 12.0679H22.1667H14.3333M2.66666 12.0679H7.83332" stroke="#030033" stroke-width="2" stroke-linecap="round"/>
<path d="M18.6667 29.4014H13.3333C8.305 29.4014 5.79086 29.4014 4.22875 27.8392C2.66666 26.2772 2.66666 23.763 2.66666 18.7347V16.068C2.66666 11.0397 2.66666 8.52557 4.22875 6.96346C5.79086 5.40137 8.305 5.40137 13.3333 5.40137H18.6667C23.6949 5.40137 26.2092 5.40137 27.7712 6.96346C29.3333 8.52557 29.3333 11.0397 29.3333 16.068V18.7347C29.3333 23.763 29.3333 26.2772 27.7712 27.8392C26.9003 28.7102 25.7335 29.0955 24 29.266" stroke="#030033" stroke-width="2" stroke-linecap="round"/>
</svg>
