<svg width="32" height="33" viewBox="0 0 32 33" fill="none" xmlns="http://www.w3.org/2000/svg">
<path d="M11.331 15.731C12.4737 14.8384 13.5247 13.8342 14.4685 12.7335C15.2269 11.8488 15.9134 10.9049 16.5213 9.91084C16.7738 9.51583 16.9885 9.098 17.1628 8.66283L19.1923 3.33252C19.8706 3.48082 20.5122 3.76369 21.0791 4.16438C21.6461 4.56507 22.1269 5.07543 22.4931 5.66526C22.8461 6.36183 23.0185 7.13584 22.9947 7.91635C22.9822 8.13326 22.947 8.34827 22.8897 8.55785L21.5017 12.9084H27.5902C28.1797 12.9068 28.748 13.1284 29.1808 13.5287C29.6136 13.929 29.8787 14.4783 29.9229 15.0662C30.0989 17.1882 29.9733 19.3245 29.5497 21.4112C29.1846 23.1286 28.7053 24.8197 28.115 26.4733C27.8043 27.3294 27.236 28.0682 26.4883 28.5883C25.7406 29.1083 24.8502 29.384 23.9394 29.3775C21.4754 29.4249 19.015 29.1664 16.6146 28.6077C14.8297 28.2124 13.0661 27.7258 11.331 27.1498V15.731Z" stroke="#030033" stroke-width="2"/>
<path d="M7 13.3325H3C2.73478 13.3325 2.48043 13.4529 2.29289 13.6673C2.10536 13.8816 2 14.1723 2 14.4754V28.1897C2 28.4928 2.10536 28.7835 2.29289 28.9978C2.48043 29.2121 2.73478 29.3325 3 29.3325H7C7.26522 29.3325 7.51957 29.2121 7.70711 28.9978C7.89464 28.7835 8 28.4928 8 28.1897V14.4754C8 14.1723 7.89464 13.8816 7.70711 13.6673C7.51957 13.4529 7.26522 13.3325 7 13.3325Z" stroke="#030033" stroke-width="2"/>
</svg>
