<svg width="32" height="33" viewBox="0 0 32 33" fill="none" xmlns="http://www.w3.org/2000/svg">
<g clip-path="url(#clip0_10867_22931)">
<path fill-rule="evenodd" clip-rule="evenodd" d="M24.6154 29.6063C22.576 29.6063 20.9231 27.9534 20.9231 25.914C20.9231 23.8746 22.576 22.2217 24.6154 22.2217C26.6548 22.2217 28.3077 23.8746 28.3077 25.914C28.3077 27.9534 26.6548 29.6063 24.6154 29.6063ZM7.38462 19.7602C5.34524 19.7602 3.69231 18.1073 3.69231 16.0679C3.69231 14.0297 5.34524 12.3756 7.38462 12.3756C9.424 12.3756 11.0769 14.0297 11.0769 16.0679C11.0769 18.1073 9.424 19.7602 7.38462 19.7602ZM24.6154 2.52941C26.6548 2.52941 28.3077 4.18233 28.3077 6.22172C28.3077 8.2611 26.6548 9.91403 24.6154 9.91403C22.576 9.91403 20.9231 8.2611 20.9231 6.22172C20.9231 4.18233 22.576 2.52941 24.6154 2.52941ZM24.6154 19.7602C22.4369 19.7602 20.5354 20.8987 19.4412 22.6057L12.8505 18.8396C13.2763 18.0027 13.5385 17.0697 13.5385 16.0679C13.5385 15.4488 13.4191 14.8629 13.2493 14.2992L20.1059 10.3817C21.2295 11.6002 22.8271 12.3756 24.6154 12.3756C28.0148 12.3756 30.7692 9.6211 30.7692 6.22172C30.7692 2.82233 28.0148 0.0678711 24.6154 0.0678711C21.216 0.0678711 18.4615 2.82233 18.4615 6.22172C18.4615 6.84079 18.5809 7.42663 18.7508 7.99155L11.8942 11.9079C10.7705 10.6906 9.17293 9.91403 7.38462 9.91403C3.98524 9.91403 1.23077 12.6685 1.23077 16.0679C1.23077 19.4673 3.98524 22.2217 7.38462 22.2217C8.7877 22.2217 10.0665 21.7343 11.1015 20.9441L11.0769 20.9909L18.5292 25.2494C18.5046 25.471 18.4615 25.6851 18.4615 25.914C18.4615 29.3134 21.216 32.0679 24.6154 32.0679C28.0148 32.0679 30.7692 29.3134 30.7692 25.914C30.7692 22.5146 28.0148 19.7602 24.6154 19.7602Z" fill="#030033"/>
</g>
<defs>
<clipPath id="clip0_10867_22931">
<rect width="32" height="32" fill="white" transform="translate(0 0.0678711)"/>
</clipPath>
</defs>
</svg>
